<svg version="1.0" xmlns="http://www.w3.org/2000/svg" width="346.667" height="346.667" viewBox="0 0 260 260"><path d="M103 79.1c0 .4 1.2 5 2.6 10.1 1.4 5.1 3.1 11.5 3.9 14.3.7 2.7 4.8 17.6 9 33 4.2 15.4 8.3 30.2 9 33 1.4 5.2 2.9 10.6 6.4 23.5 1.1 4.1 2.1 7.8 2.1 8.2 0 .5 3.6.8 7.9.8 6.7 0 8-.3 8.5-1.8.9-2.9 20.5-74 23.3-84.2 2.9-11.1 3.9-13.3 4.7-11 .5 1.4 6.1 21.5 9.2 33 .8 3 2.4 8.6 3.5 12.4 1.2 3.8 2.2 7.7 2.4 8.7.2 1.1.6 2.3.9 2.7.3.5.7 1.9.9 3.3.5 2.4 4.3 16.6 7.2 26.4.8 2.7 1.7 6.2 2.1 7.8.6 2.7.7 2.7 8.4 2.7 6.6 0 7.9-.3 8.4-1.8.6-1.9 26.3-96.2 30.5-111.7l2.8-10.1-7.6.1h-7.6l-2.3 8.5c-1.3 4.7-2.5 9.4-2.7 10.5-.3 1.1-2.7 10.8-5.5 21.5s-7.3 28.6-10.2 39.7c-2.8 11.2-5.4 20.3-5.8 20.3-.3 0-1.4-3-2.3-6.8-1-3.7-1.9-7.4-2.1-8.2-4.2-15.6-9.8-36.9-10-38-.9-3.5-11.3-43.2-12.2-46.1-.3-1.2-2.1-1.5-8.9-1.5-4.7 0-8.5.1-8.5.3 0 .2-2 8.1-4.5 17.6-5.1 19.5-19.1 73.2-20.6 79.1-.6 2.1-1.4 3.5-1.8 3-.7-.7-4.2-13.1-5.6-19.4-.2-.8-1.7-7.1-3.5-14s-3.4-13.4-3.6-14.4c-.2-1-.8-3.3-1.4-5.1-.6-1.8-1.2-4.1-1.4-5.2-.9-4.6-7.1-28.1-9.8-37.3l-1.3-4.5-7.2-.1c-4-.1-7.3.3-7.3.7zm-84.2 26.5c-7.8 4.2-2.6 15.6 6 13.2 7.1-1.9 7.1-11.2.1-13.7-1.8-.6-3.2-1.1-3.3-1.1-.1.1-1.3.7-2.8 1.6zm53.1 25.7c-5.1 1.7-8.7 4.4-10.9 8-1.1 1.8-2.1 3-2.1 2.7-.1-.3-.3-2.5-.4-5-.2-2.5-.4-4.8-.4-5.3-.1-.4-2.3-.7-5.1-.7-4.5 0-5 .2-5 2.2-.1 3.3-.1 60.6-.1 65l.1 3.8h10.9v-24.1c0-22.5.2-24.4 2.1-28.5 2.7-5.4 7.3-8.4 14.3-9.1 5.4-.5 10.1 1 13.4 4.3 1.2 1.2 4.3 7.6 4.3 8.9V202h11.1l-.1-26.1c-.1-28-.6-31-5.6-37.6-1.4-1.8-4.4-4.3-6.7-5.4-4.9-2.6-14.6-3.3-19.8-1.6zM17 166.5V202h11v-71H17v35.5z"/></svg>